<svg width="20" height="20" viewBox="0 0 20 20" fill="none" xmlns="http://www.w3.org/2000/svg">
<path d="M5.83342 12.3583C5.98955 12.5135 6.20076 12.6006 6.42092 12.6006C6.64107 12.6006 6.85228 12.5135 7.00842 12.3583L10.0001 9.40826L12.9501 12.3583C13.1062 12.5135 13.3174 12.6006 13.5376 12.6006C13.7577 12.6006 13.9689 12.5135 14.1251 12.3583C14.2032 12.2808 14.2652 12.1886 14.3075 12.0871C14.3498 11.9855 14.3716 11.8766 14.3716 11.7666C14.3716 11.6566 14.3498 11.5477 14.3075 11.4461C14.2652 11.3446 14.2032 11.2524 14.1251 11.1749L10.5918 7.64159C10.5143 7.56349 10.4221 7.50149 10.3206 7.45918C10.219 7.41688 10.1101 7.39509 10.0001 7.39509C9.89007 7.39509 9.78115 7.41688 9.6796 7.45918C9.57805 7.50149 9.48589 7.56349 9.40842 7.64159L5.83342 11.1749C5.75531 11.2524 5.69331 11.3446 5.65101 11.4461C5.6087 11.5477 5.58692 11.6566 5.58692 11.7666C5.58692 11.8766 5.6087 11.9855 5.65101 12.0871C5.69331 12.1886 5.75531 12.2808 5.83342 12.3583Z" fill="inherit"/>
</svg>
