<svg width="20" height="20" viewBox="0 0 20 20" fill="none" xmlns="http://www.w3.org/2000/svg">
<g id="left arrow">
<path id="Vector" d="M5.86762 9.25973L5.86764 9.25975L5.87167 9.25565L13.1493 1.84788C13.4153 1.58346 13.7827 1.58404 14.0483 1.84962C14.3144 2.11579 14.3144 2.48425 14.0483 2.75042L7.67834 9.12051L7.21874 9.58013L7.67834 10.0397L14.0483 16.4098C14.1399 16.5015 14.1828 16.5673 14.2064 16.6205C14.2288 16.6708 14.2479 16.7411 14.2479 16.8602C14.2479 17.1025 14.17 17.2539 14.0808 17.3431C13.9916 17.4323 13.8402 17.5103 13.5979 17.5103C13.4788 17.5103 13.4085 17.4912 13.3582 17.4688C13.305 17.4451 13.2392 17.4023 13.1475 17.3106L5.73762 9.90052L5.69211 9.85501L5.66283 9.83549C5.65656 9.81973 5.6469 9.78295 5.65075 9.71368C5.65818 9.57995 5.72134 9.40601 5.86762 9.25973ZM5.66769 9.84509C5.66764 9.84512 5.66713 9.84448 5.66633 9.84305C5.66733 9.84434 5.66774 9.84506 5.66769 9.84509Z" fill="#BFC1C8" stroke="#BFC1C8" stroke-width="1.3"/>
</g>
</svg>
