<svg width="128" height="33" viewBox="0 0 128 33" fill="none" xmlns="http://www.w3.org/2000/svg">
<path fill-rule="evenodd" clip-rule="evenodd" d="M123.814 15.9459C122.922 15.1988 122.237 14.4467 121.76 13.6896C123.088 12.7305 124.291 11.3524 125.37 9.55543C126.449 7.74833 127.222 5.61817 127.689 3.16495C127.699 3.10438 127.704 3.04885 127.704 2.99838C127.704 2.79647 127.642 2.61475 127.518 2.45322C127.372 2.25131 127.165 2.12511 126.895 2.07463L125.962 1.96863L125.837 1.95349C125.64 1.95349 125.458 2.01406 125.292 2.13521C125.095 2.27654 124.971 2.46836 124.919 2.71065C124.473 4.97205 123.783 6.83468 122.85 8.29854C121.926 9.76239 120.993 10.8224 120.049 11.4786C120.049 11.2767 120.043 11.0799 120.033 10.888V10.8275C119.992 9.09104 119.966 7.75338 119.955 6.81449V4.90643C119.955 3.92717 119.976 3.17505 120.018 2.65008V2.49865C120.018 1.86263 119.784 1.30737 119.317 0.832882C119.099 0.600685 118.783 0.403822 118.368 0.242293C117.964 0.0807643 117.471 0 116.89 0H116.563C115.681 0.0201911 114.997 0.277627 114.509 0.772309C114.022 1.2569 113.778 1.91311 113.778 2.74094V2.78637C113.809 4.13917 113.882 6.24409 113.996 9.10113C114.151 13.1293 114.265 16.7939 114.338 20.0952C114.369 20.6908 114.654 21.1754 115.194 21.5489C115.733 21.9225 116.423 22.1092 117.263 22.1092L118.01 22.0941H118.072C119.297 21.9023 119.971 21.1552 120.095 19.8529C120.126 19.1765 120.142 18.4042 120.142 17.536C120.142 17.1018 120.137 16.6425 120.126 16.1579C120.821 17.0564 121.734 17.8893 122.865 18.6566C123.996 19.4137 125.36 19.8882 126.957 20.08H127.051C127.3 20.08 127.512 19.9993 127.689 19.8377C127.886 19.6661 127.99 19.4339 128 19.1411L127.984 18.2174C127.974 17.9852 127.891 17.7883 127.735 17.6268C127.59 17.4552 127.398 17.3542 127.16 17.3239C125.822 17.1422 124.706 16.6829 123.814 15.9459ZM11.8259 16.1579C11.8985 15.956 12.023 15.7995 12.1994 15.6885C12.3653 15.5875 12.5469 15.537 12.744 15.537H12.7907L13.7243 15.643C14.0044 15.6834 14.2222 15.8096 14.3778 16.0216C14.4919 16.1731 14.549 16.3447 14.549 16.5365C14.549 16.6072 14.5386 16.6829 14.5179 16.7636C13.8643 18.8736 12.5158 20.4031 10.4722 21.3521C9.6319 21.7054 8.77608 21.8821 7.90469 21.8821C6.34865 21.8821 4.80298 21.3319 3.26769 20.2315C2.03323 19.2825 1.15666 18.0054 0.637977 16.4002C0.212659 15.0878 0 13.7097 0 12.2661C0 11.943 0.0311208 11.2515 0.0933625 10.1915C0.155604 9.12132 0.508307 7.80385 1.15147 6.23905C2.01248 4.16946 3.19507 2.61979 4.69925 1.59005C5.96483 0.731927 7.36526 0.302866 8.90056 0.302866C9.18065 0.302866 9.47111 0.31801 9.77194 0.348296C10.7263 0.479538 11.4525 0.731927 11.9504 1.10546V1.12061H11.966C12.3913 1.43357 12.6973 1.75158 12.884 2.07463C13.1537 2.53903 13.3145 3.00342 13.3664 3.46782C13.3975 3.70002 13.4131 3.92212 13.4131 4.13412C13.4131 4.34613 13.3975 4.54804 13.3664 4.73986C13.3145 5.03263 13.1641 5.24463 12.9151 5.37588C12.7803 5.45664 12.6351 5.49702 12.4795 5.49702C12.3653 5.49702 12.2512 5.47683 12.1371 5.43645L11.8104 5.33045L11.2502 5.11844C10.856 4.94682 10.6589 4.649 10.6589 4.22498V4.1947C10.6693 4.13412 10.6744 4.07355 10.6744 4.01298C10.6744 3.81107 10.6278 3.62935 10.5344 3.46782C10.5033 3.41734 10.467 3.37191 10.4255 3.33153C10.2491 3.21038 10.0572 3.14981 9.84974 3.14981C9.79788 3.14981 9.69414 3.1599 9.53854 3.1801C9.39331 3.19019 9.13397 3.39715 8.76052 3.80097C7.86838 4.89129 7.20447 6.42581 6.76878 8.40454C6.42645 9.98954 6.25529 11.5543 6.25529 13.099C6.25529 13.4725 6.28641 14.2347 6.34865 15.3856C6.41089 16.5264 6.80509 17.5461 7.53124 18.4446C7.62461 18.5556 7.76984 18.6717 7.96693 18.7929C8.11216 18.8736 8.30408 18.914 8.54267 18.914C8.64641 18.914 8.82276 18.8989 9.07172 18.8686C9.33106 18.8383 9.7875 18.6263 10.441 18.2325C11.105 17.6571 11.5666 16.9656 11.8259 16.1579ZM35.0265 2.90752C34.985 3.75554 34.9643 5.01748 34.9643 6.69334V9.13142C34.9643 10.4236 34.985 12.2207 35.0265 14.5224C35.0784 16.8141 35.1406 18.601 35.2132 19.8832V20.0043C35.2132 20.5899 35.0109 21.1047 34.6064 21.5489C34.1188 22.0133 33.5586 22.2455 32.9258 22.2455H31.6032C31.0015 22.2455 30.4829 22.0487 30.0472 21.6549C29.6218 21.2612 29.3781 20.7665 29.3158 20.1709C29.2432 18.9291 29.1706 17.2331 29.098 15.0827C28.2681 16.6274 27.2982 17.8994 26.1882 18.8989C25.0782 19.8882 23.8749 20.4031 22.5782 20.4435H22.547C20.8665 20.4435 19.4713 19.5803 18.3613 17.854C17.3965 16.2185 16.9142 14.3205 16.9142 12.1601C16.9142 12.0692 16.9194 11.4332 16.9297 10.252C16.9505 9.07084 17.4899 7.50604 18.548 5.5576C19.575 3.77068 20.9028 2.50369 22.5315 1.75662C23.6518 1.24175 24.8811 0.984315 26.2193 0.984315C26.821 0.984315 27.4434 1.03479 28.0866 1.13575C28.3978 1.15594 28.7245 1.20642 29.0669 1.28718L29.0513 1.33261C29.2795 1.38309 29.5077 1.44366 29.736 1.51433C30.1613 1.09032 30.7163 0.832882 31.4009 0.742022H31.5098L32.5524 0.696592C32.6458 0.686497 32.7391 0.681449 32.8325 0.681449C33.1852 0.681449 33.4964 0.736975 33.7661 0.848026C34.0358 0.959077 34.2485 1.09032 34.4041 1.24175C34.5701 1.38309 34.7205 1.59005 34.8553 1.86263C34.9694 2.09483 35.0265 2.3876 35.0265 2.74094V2.90752ZM24.8967 16.4002C25.9444 15.2594 26.8521 13.74 27.6197 11.8421C28.3874 9.94411 28.8283 8.02596 28.9424 6.08761H28.9735C28.9839 5.35064 28.9994 4.68433 29.0202 4.08869C28.6052 3.96755 28.1851 3.86659 27.7598 3.78583C27.6872 3.77573 27.6146 3.77068 27.5419 3.77068C26.2764 3.77068 25.1301 4.78024 24.1031 6.79935C23.574 7.82909 23.1695 9.0557 22.8894 10.4792C22.6508 11.7007 22.5315 12.8516 22.5315 13.9318C22.5315 14.0934 22.5419 14.5174 22.5626 15.2039C22.5937 15.8904 22.8064 16.4406 23.2006 16.8545C23.2939 16.9252 23.4029 16.9605 23.5274 16.9605C23.6 16.9605 23.7089 16.9403 23.8541 16.8999C23.9994 16.8596 24.1809 16.7838 24.3987 16.6728C24.627 16.5617 24.7929 16.4709 24.8967 16.4002ZM56.2509 6.34505C55.836 4.36632 55.1617 2.87723 54.2281 1.87777C53.4812 1.1307 52.6098 0.757166 51.6139 0.757166C50.2861 0.767261 49.0257 1.37804 47.8327 2.58951C47.1169 3.33658 46.453 4.25022 45.841 5.33045C45.229 6.40057 44.674 7.55147 44.176 8.78312V7.99567C44.176 5.69389 44.2175 4.00288 44.3005 2.92266C44.3109 2.85199 44.3161 2.77627 44.3161 2.69551C44.3161 2.12006 44.0982 1.60519 43.6625 1.15089C43.4447 0.918694 43.1387 0.721831 42.7445 0.560303C42.3503 0.388678 41.8627 0.302866 41.2818 0.302866H40.9706C40.1199 0.302866 39.4457 0.540111 38.9477 1.0146C38.4498 1.48909 38.2008 2.14025 38.2008 2.96809C38.2008 4.16946 38.2319 6.234 38.2942 9.16171C38.3772 13.099 38.4239 16.6829 38.4342 19.9135C38.4342 20.4889 38.7039 20.9684 39.2434 21.3521C39.7828 21.7357 40.4571 21.9275 41.2662 21.9275H42.0598C43.2631 21.7559 43.9374 21.0391 44.0827 19.7772V19.7015H44.0982V19.656C44.0982 19.1311 44.285 18.0357 44.6584 16.3699C45.0526 14.6638 45.6128 12.8011 46.3389 10.782C47.0651 8.75284 47.9261 7.00126 48.922 5.52731C49.1709 5.3153 49.3369 5.20425 49.4199 5.19416C49.8763 5.52731 50.2602 6.50153 50.5714 8.11682C50.8826 9.72201 51.0849 11.3625 51.1782 13.0384C51.282 14.7143 51.3338 16.1226 51.3338 17.2634C51.3338 18.2124 51.3079 19.1411 51.256 20.0497L51.2405 20.1558C51.2301 20.2163 51.2249 20.2819 51.2249 20.3526C51.2249 20.4738 51.2353 20.605 51.256 20.7463C51.2975 20.9785 51.422 21.2158 51.6295 21.4581C51.8577 21.6802 52.0859 21.8165 52.3141 21.8669C52.5423 21.9174 52.7343 21.9427 52.8899 21.9427H52.9677L54.8505 21.9729H54.8972C55.0631 21.9729 55.2914 21.9326 55.5818 21.8518C55.8826 21.7609 56.1576 21.5641 56.4065 21.2612C56.6555 20.9583 56.8059 20.4889 56.8578 19.8529C56.9511 18.3083 56.9978 16.7334 56.9978 15.1282C56.9978 14.3912 56.9874 13.6441 56.9667 12.887C56.9044 10.5044 56.6659 8.32377 56.2509 6.34505ZM71.6402 16.1579C71.7128 15.956 71.8373 15.7995 72.0136 15.6885C72.1796 15.5875 72.3611 15.537 72.5582 15.537H72.6049L73.5385 15.643C73.8186 15.6834 74.0365 15.8096 74.1921 16.0216C74.3062 16.1731 74.3632 16.3447 74.3632 16.5365C74.3632 16.6072 74.3529 16.6829 74.3321 16.7636C73.6786 18.8736 72.33 20.4031 70.2864 21.3521C69.4461 21.7054 68.5903 21.8821 67.7189 21.8821C66.1629 21.8821 64.6172 21.3319 63.0819 20.2315C61.8475 19.2825 60.9709 18.0054 60.4522 16.4002C60.0269 15.0878 59.8142 13.7097 59.8142 12.2661C59.8142 11.943 59.8454 11.2515 59.9076 10.1915C59.9699 9.12132 60.3226 7.80385 60.9657 6.23905C61.8267 4.16946 63.0093 2.61979 64.5135 1.59005C65.7791 0.731927 67.1795 0.302866 68.7148 0.302866C68.9949 0.302866 69.2854 0.31801 69.5862 0.348296C70.5406 0.479538 71.2667 0.731927 71.7646 1.10546V1.12061H71.7802C72.2055 1.43357 72.5116 1.75158 72.6983 2.07463C72.968 2.53903 73.1288 3.00342 73.1806 3.46782C73.2118 3.70002 73.2273 3.92212 73.2273 4.13412C73.2273 4.34613 73.2118 4.54804 73.1806 4.73986C73.1288 5.03263 72.9784 5.24463 72.7294 5.37588C72.5945 5.45664 72.4493 5.49702 72.2937 5.49702C72.1796 5.49702 72.0655 5.47683 71.9514 5.43645L71.6246 5.33045L71.0644 5.11844C70.6702 4.94682 70.4731 4.649 70.4731 4.22498V4.1947C70.4835 4.13412 70.4887 4.07355 70.4887 4.01298C70.4887 3.81107 70.442 3.62935 70.3486 3.46782C70.3175 3.41734 70.2812 3.37191 70.2397 3.33153C70.0634 3.21038 69.8715 3.14981 69.664 3.14981C69.6121 3.14981 69.5084 3.1599 69.3528 3.1801C69.2076 3.19019 68.9482 3.39715 68.5748 3.80097C67.6826 4.89129 67.0187 6.42581 66.583 8.40454C66.2407 9.98954 66.0695 11.5543 66.0695 13.099C66.0695 13.4725 66.1007 14.2347 66.1629 15.3856C66.2251 16.5264 66.6193 17.5461 67.3455 18.4446C67.4389 18.5556 67.5841 18.6717 67.7812 18.7929C67.9264 18.8736 68.1183 18.914 68.3569 18.914C68.4607 18.914 68.637 18.8989 68.886 18.8686C69.1453 18.8383 69.6018 18.6263 70.2553 18.2325C70.9192 17.6571 71.3808 16.9656 71.6402 16.1579ZM90.5928 4.27041C89.7214 2.77627 88.5336 1.67586 87.0294 0.969172C86.241 0.65621 85.463 0.499729 84.6954 0.499729C83.6476 0.499729 82.6258 0.787452 81.63 1.3629C78.798 3.12962 77.1589 6.03209 76.7129 10.0703C76.6402 10.8477 76.6039 11.5796 76.6039 12.2661C76.6039 13.9318 76.8166 15.32 77.2419 16.4305C77.8436 17.9953 78.5594 19.1462 79.3893 19.8832C80.0635 20.5394 80.8104 21.0492 81.63 21.4126C82.4598 21.766 83.2897 21.9427 84.1196 21.9427C84.2026 21.9427 84.2856 21.9376 84.3686 21.9275C86.3396 21.8266 87.9994 21.13 89.3479 19.8377C90.7069 18.5455 91.6353 16.7737 92.1332 14.5224C92.3407 13.5331 92.4444 12.5185 92.4444 11.4786C92.4444 10.7417 92.3926 9.99459 92.2888 9.23742C92.0399 7.41013 91.4745 5.75446 90.5928 4.27041ZM89.5969 11.4938V11.8421C89.2546 11.6906 88.9382 11.4736 88.6477 11.1909C87.7971 10.2924 87.1954 9.11627 86.8427 7.66252C86.5004 6.20876 86.3085 4.861 86.267 3.61925C87.3354 4.30575 88.155 5.37588 88.7255 6.82963C89.3064 8.2733 89.5969 9.82801 89.5969 11.4938ZM87.2784 18.0205C86.739 18.5455 86.0491 18.919 85.2089 19.1411H85.0999C84.8095 19.1411 84.5449 19.0402 84.3063 18.8383C83.8084 18.4547 83.3935 17.6722 83.0615 16.4911C82.7296 15.2998 82.5636 13.8006 82.5636 11.9935C82.5636 11.6805 82.5688 11.3524 82.5791 11.0092C82.6829 8.89922 83.02 7.12745 83.5906 5.69389C83.7254 6.95583 84.0211 8.25311 84.4775 9.58572C84.934 10.9082 85.6342 12.0541 86.5782 13.0232C87.3354 13.7602 88.212 14.27 89.2079 14.5527C89.073 15.0676 88.85 15.643 88.5388 16.2791C88.2379 16.905 87.8178 17.4855 87.2784 18.0205ZM105.577 0.969172C107.082 1.67586 108.269 2.77627 109.141 4.27041C110.023 5.75446 110.588 7.41013 110.837 9.23742C110.941 9.99459 110.992 10.7417 110.992 11.4786C110.992 12.5185 110.889 13.5331 110.681 14.5224C110.183 16.7737 109.255 18.5455 107.896 19.8377C106.547 21.13 104.888 21.8266 102.917 21.9275C102.834 21.9376 102.751 21.9427 102.668 21.9427C101.838 21.9427 101.008 21.766 100.178 21.4126C99.3585 21.0492 98.6116 20.5394 97.9373 19.8832C97.1074 19.1462 96.3916 17.9953 95.7899 16.4305C95.3646 15.32 95.152 13.9318 95.152 12.2661C95.152 11.5796 95.1883 10.8477 95.2609 10.0703C95.7069 6.03209 97.346 3.12962 100.178 1.3629C101.174 0.787452 102.196 0.499729 103.243 0.499729C104.011 0.499729 104.789 0.65621 105.577 0.969172ZM108.145 11.8421V11.4938C108.145 9.82801 107.854 8.2733 107.274 6.82963C106.703 5.37588 105.883 4.30575 104.815 3.61925C104.856 4.861 105.048 6.20876 105.391 7.66252C105.743 9.11627 106.345 10.2924 107.196 11.1909C107.486 11.4736 107.803 11.6906 108.145 11.8421ZM103.757 19.1411C104.597 18.919 105.287 18.5455 105.826 18.0205C106.366 17.4855 106.786 16.905 107.087 16.2791C107.398 15.643 107.621 15.0676 107.756 14.5527C106.76 14.27 105.883 13.7602 105.126 13.0232C104.182 12.0541 103.482 10.9082 103.026 9.58572C102.569 8.25311 102.273 6.95583 102.139 5.69389C101.568 7.12745 101.231 8.89922 101.127 11.0092C101.117 11.3524 101.112 11.6805 101.112 11.9935C101.112 13.8006 101.278 15.2998 101.61 16.4911C101.941 17.6722 102.356 18.4547 102.854 18.8383C103.093 19.0402 103.357 19.1411 103.648 19.1411H103.757ZM105.885 27.7253C106.479 27.1475 106.492 26.1979 105.914 25.6042C105.336 25.0105 104.387 24.9976 103.793 25.5754C102.838 26.5049 101.146 27.2398 99.5512 27.9298C95.3442 29.7494 91.1507 28.9354 86.201 27.8418C85.3921 27.6631 84.5915 28.174 84.4128 28.9829C84.234 29.7918 84.7449 30.5925 85.5538 30.7712C90.3876 31.8392 95.5219 32.9412 100.742 30.6833L100.959 30.5899C102.377 29.9784 104.519 29.0554 105.885 27.7253Z" fill="#FFC043"/>
</svg>
