<svg width="18" height="18" viewBox="0 0 20 20" fill="none" xmlns="http://www.w3.org/2000/svg">
<path fill-rule="evenodd" clip-rule="evenodd" d="M9.99984 18.3334C14.6022 18.3334 18.3332 14.6025 18.3332 10.0001C18.3332 5.39771 14.6022 1.66675 9.99984 1.66675C5.39746 1.66675 1.6665 5.39771 1.6665 10.0001C1.6665 14.6025 5.39746 18.3334 9.99984 18.3334ZM7.11684 7.11019C7.60505 6.62208 8.3965 6.62216 8.88461 7.11037L9.99909 8.22508L11.1122 7.11201C11.6003 6.62385 12.3918 6.62385 12.8799 7.11201C13.3681 7.60016 13.3681 8.39162 12.8799 8.87977L11.7667 9.99304L12.8813 11.1079C13.3694 11.5961 13.3693 12.3875 12.8811 12.8756C12.3929 13.3637 11.6014 13.3637 11.1133 12.8755L9.9989 11.7608L8.8866 12.8731C8.39844 13.3613 7.60699 13.3613 7.11883 12.8731C6.63068 12.385 6.63068 11.5935 7.11883 11.1053L8.23132 9.99285L7.11666 8.87795C6.62855 8.38975 6.62863 7.59829 7.11684 7.11019Z" fill="#FEF3EF"/>
</svg>
