<svg width="18" height="18" viewBox="0 0 18 18" fill="none" xmlns="http://www.w3.org/2000/svg">
<g clip-path="url(#clip0_1863_4696)">
<path d="M15.465 6.525C14.685 3.0525 11.655 1.5 9 1.5C9 1.5 9 1.5 8.9925 1.5C6.345 1.5 3.3225 3.0525 2.535 6.5175C1.65 10.3875 4.02 13.665 6.165 15.735C6.96 16.5 7.98 16.8825 9 16.8825C10.02 16.8825 11.04 16.5 11.8275 15.735C13.9725 13.665 16.3425 10.395 15.465 6.525ZM11.0625 8.8125H9.5625V10.3125C9.5625 10.62 9.3075 10.875 9 10.875C8.6925 10.875 8.4375 10.62 8.4375 10.3125V8.8125H6.9375C6.63 8.8125 6.375 8.5575 6.375 8.25C6.375 7.9425 6.63 7.6875 6.9375 7.6875H8.4375V6.1875C8.4375 5.88 8.6925 5.625 9 5.625C9.3075 5.625 9.5625 5.88 9.5625 6.1875V7.6875H11.0625C11.37 7.6875 11.625 7.9425 11.625 8.25C11.625 8.5575 11.37 8.8125 11.0625 8.8125Z" fill="#FFC043"/>
</g>
<defs>
<clipPath id="clip0_1863_4696">
<rect width="18" height="18" fill="white"/>
</clipPath>
</defs>
</svg>
