<svg width="141" height="23" viewBox="0 0 141 23" fill="none" xmlns="http://www.w3.org/2000/svg">
<g clip-path="url(#clip0_1786_14819)">
<rect y="0.5" width="22" height="22" rx="4" fill="white"/>
<g filter="url(#filter0_f_1786_14819)">
<ellipse cx="2.44285" cy="3.07606" rx="14.5709" ry="7.86373" transform="rotate(-13.5173 2.44285 3.07606)" fill="#0057FF"/>
</g>
<g filter="url(#filter1_f_1786_14819)">
<ellipse cx="17.8657" cy="4.73975" rx="10.1242" ry="5.70219" transform="rotate(-9.66573 17.8657 4.73975)" fill="#00FFFF"/>
</g>
<g filter="url(#filter2_f_1786_14819)">
<ellipse cx="45.8743" cy="-30.6113" rx="10.827" ry="7.63284" fill="#EC3039"/>
</g>
<g filter="url(#filter3_f_1786_14819)">
<ellipse cx="15.4148" cy="15.7267" rx="13.0146" ry="10.7665" transform="rotate(28.5377 15.4148 15.7267)" fill="#00ED97"/>
</g>
<g filter="url(#filter4_f_1786_14819)">
<ellipse cx="4.62268" cy="18.0226" rx="15.6098" ry="10.3311" transform="rotate(14.8265 4.62268 18.0226)" fill="#FFA467"/>
</g>
<path fill-rule="evenodd" clip-rule="evenodd" d="M10.9996 12.4301C10.6596 13.1019 9.96268 13.5625 9.1582 13.5625C8.01912 13.5625 7.0957 12.6391 7.0957 11.5C7.0957 10.3609 8.01912 9.4375 9.1582 9.4375C9.96268 9.4375 10.6596 9.89808 10.9996 10.5699C11.3396 9.89808 12.0365 9.4375 12.841 9.4375C13.9801 9.4375 14.9035 10.3609 14.9035 11.5C14.9035 12.6391 13.9801 13.5625 12.841 13.5625C12.0365 13.5625 11.3396 13.1019 10.9996 12.4301Z" fill="white"/>
<circle cx="13.5342" cy="11.5" r="0.6875" fill="black"/>
<circle cx="9.52979" cy="11.5" r="0.6875" fill="black"/>
<rect x="2.97803" y="5.93945" width="15.0151" height="13.4872" rx="2" transform="rotate(-4.58052 2.97803 5.93945)" fill="black"/>
<path fill-rule="evenodd" clip-rule="evenodd" d="M11.2185 12.5436C10.8909 13.1911 10.2193 13.635 9.44403 13.635C8.34637 13.635 7.45654 12.7452 7.45654 11.6476C7.45654 10.55 8.34637 9.66016 9.44403 9.66016C10.2193 9.66016 10.8909 10.104 11.2185 10.7515C11.5462 10.104 12.2178 9.66016 12.993 9.66016C14.0907 9.66016 14.9805 10.55 14.9805 11.6476C14.9805 12.7452 14.0907 13.635 12.993 13.635C12.2178 13.635 11.5462 13.1911 11.2185 12.5436Z" fill="white"/>
<ellipse cx="13.6605" cy="11.6469" rx="0.662497" ry="0.662478" fill="black"/>
<ellipse cx="9.80215" cy="11.6469" rx="0.662497" ry="0.662478" fill="black"/>
</g>
<path d="M44.4527 12.2252C43.661 13.402 42.955 15.4133 41.393 15.4133C39.3604 15.4133 38.6757 14.0653 37.4133 12.7173C37.1779 14.0867 37.3919 15.67 37.4133 17.0608C37.4561 19.2646 36.4718 19.1363 34.589 19.1363C33.6261 19.1363 32 19.2218 32 17.8953C32 17.1464 32.107 16.4189 32.1284 15.67L32.107 5.33559C32.107 4.90766 32.1498 4.43694 32.214 4.00901C32.3637 3.04617 33.6475 3.02477 34.4178 3.02477C34.7815 3.02477 36.5146 3.04617 36.857 3.13176C38.0552 3.43131 39.8311 7.6464 40.8153 8.73761C43.0405 5.69933 43.6824 4.0518 44.902 3.28153C45.4797 2.91779 46.2928 2.93919 47.1487 2.93919C48.6036 2.93919 49.5237 2.93919 49.6734 4.43694C50.0158 7.90315 50.1869 13.8941 50.1869 17.3176C50.1869 18.1092 50.0586 18.9009 49.1171 18.9865C48.0259 19.0935 46.8705 19.1363 45.7793 19.1363C45.1588 19.1363 44.8164 18.7511 44.7736 18.152C44.6667 16.3761 44.8378 13.9797 44.4527 12.2252Z" fill="white"/>
<path d="M67.9533 11.9899C67.1402 16.9538 65.0006 19.0935 58.9882 19.0721C53.5321 19.0507 51.3711 16.1194 51.3711 10.8986C51.3711 5.89189 54.0242 2.8536 59.0096 2.8536C61.7697 2.8536 64.915 3.04617 66.8407 5.25C68.3598 7.0473 68.1673 9.91441 67.9533 11.9899ZM58.7529 7.83896C56.8272 7.83896 56.5918 9.16554 56.5918 10.8773C56.5918 13.5304 57.7044 14.0225 60.0794 14.0225C61.8767 14.0225 62.8824 12.2038 62.8824 10.4707C62.8824 7.53941 61.727 8.03153 58.7529 7.83896Z" fill="white"/>
<path d="M81.583 12.2252C80.7913 13.402 80.0852 15.4133 78.5233 15.4133C76.4906 15.4133 75.8059 14.0653 74.5436 12.7173C74.3082 14.0867 74.5222 15.67 74.5436 17.0608C74.5863 19.2646 73.6021 19.1363 71.7192 19.1363C70.7564 19.1363 69.1303 19.2218 69.1303 17.8953C69.1303 17.1464 69.2373 16.4189 69.2587 15.67L69.2373 5.33559C69.2373 4.90766 69.28 4.43694 69.3442 4.00901C69.494 3.04617 70.7778 3.02477 71.5481 3.02477C71.9118 3.02477 73.6449 3.04617 73.9873 3.13176C75.1855 3.43131 76.9614 7.6464 77.9456 8.73761C80.1708 5.69933 80.8127 4.0518 82.0323 3.28153C82.61 2.91779 83.4231 2.93919 84.2789 2.93919C85.7339 2.93919 86.6539 2.93919 86.8037 4.43694C87.146 7.90315 87.3172 13.8941 87.3172 17.3176C87.3172 18.1092 87.1888 18.9009 86.2474 18.9865C85.1562 19.0935 84.0008 19.1363 82.9095 19.1363C82.2891 19.1363 81.9467 18.7511 81.9039 18.152C81.7969 16.3761 81.9681 13.9797 81.583 12.2252Z" fill="white"/>
<path d="M105.084 11.9899C104.271 16.9538 102.131 19.0935 96.1185 19.0721C90.6624 19.0507 88.5014 16.1194 88.5014 10.8986C88.5014 5.89189 91.1545 2.8536 96.1399 2.8536C98.9 2.8536 102.045 3.04617 103.971 5.25C105.49 7.0473 105.298 9.91441 105.084 11.9899ZM95.8831 7.83896C93.9574 7.83896 93.7221 9.16554 93.7221 10.8773C93.7221 13.5304 94.8347 14.0225 97.2097 14.0225C99.007 14.0225 100.013 12.2038 100.013 10.4707C100.013 7.53941 98.8572 8.03153 95.8831 7.83896Z" fill="white"/>
<path d="M111.674 14.5788L111.545 14.6216C111.545 15.5417 111.61 16.4617 111.61 17.3818C111.61 19.5428 109.62 19.2218 108.015 19.2218C107.159 19.2218 106.196 19.2005 106.196 18.1306C106.196 16.2477 106.389 14.3435 106.432 12.4606C106.496 9.61486 106.218 6.66216 106.432 3.83784C106.517 2.59685 108.422 2.81081 109.363 2.81081C109.877 2.81081 110.497 2.76802 110.989 2.8964C111.567 3.04617 111.738 3.30293 111.759 3.88063C111.802 5.10022 111.759 6.29842 111.759 7.51802C113.236 6.59797 114.883 2.66104 116.445 2.66104C117.408 2.66104 119.762 4.00901 119.762 5.07883C119.762 6.25563 116.36 10.1712 115.418 11.1126C116.124 11.9899 119.676 16.2477 119.676 17.0394C119.676 18.2804 117.151 19.5 116.081 19.5C114.755 19.5 112.701 15.6059 111.674 14.5788Z" fill="white"/>
<path d="M128.489 7.88176H125.002C123.333 7.88176 123.418 7.32545 123.418 5.8277C123.418 2.8536 123.868 2.98198 126.692 2.98198C134.93 2.98198 133.689 2.63964 133.689 11.0912C133.689 15.7556 133.796 19.0721 127.27 19.2646C122.883 19.393 120.637 17.6813 120.637 14.3007C120.637 12.2038 120.209 10.4279 122.798 10.4279C126.606 10.4279 126.029 10.3851 126.029 13.7016C126.029 14.6216 127.077 14.4504 127.74 14.4504C128.254 14.4504 128.318 14.4077 128.425 13.8941C128.639 12.9099 128.575 11.7117 128.575 10.7061C128.575 9.91441 128.532 8.67342 128.489 7.88176Z" fill="white"/>
<path d="M140.109 16.4403C140.109 19.4572 138.953 19.1149 136.322 19.1149C135.359 19.1149 134.995 18.6655 134.952 17.7455C134.845 15.0709 134.952 12.0968 134.952 9.46509C134.952 6.85473 135.295 6.51239 137.862 6.51239C139.895 6.51239 140.194 6.68356 140.194 8.71622C140.194 11.0698 140.109 13.9583 140.109 16.4403ZM137.263 0.5C138.718 0.5 140.152 1.31306 140.152 2.93919C140.152 4.28716 138.953 5.39977 137.648 5.39977C136.257 5.39977 134.952 4.30856 134.952 2.875C134.952 1.61261 135.979 0.5 137.263 0.5Z" fill="white"/>
<defs>
<filter id="filter0_f_1786_14819" x="-31.8447" y="-25.2969" width="68.5752" height="56.7461" filterUnits="userSpaceOnUse" color-interpolation-filters="sRGB">
<feFlood flood-opacity="0" result="BackgroundImageFix"/>
<feBlend mode="normal" in="SourceGraphic" in2="BackgroundImageFix" result="shape"/>
<feGaussianBlur stdDeviation="10" result="effect1_foregroundBlur_1786_14819"/>
</filter>
<filter id="filter1_f_1786_14819" x="-2.16162" y="-11.1348" width="40.0542" height="31.748" filterUnits="userSpaceOnUse" color-interpolation-filters="sRGB">
<feFlood flood-opacity="0" result="BackgroundImageFix"/>
<feBlend mode="normal" in="SourceGraphic" in2="BackgroundImageFix" result="shape"/>
<feGaussianBlur stdDeviation="5" result="effect1_foregroundBlur_1786_14819"/>
</filter>
<filter id="filter2_f_1786_14819" x="-4.95264" y="-78.2441" width="101.654" height="95.2656" filterUnits="userSpaceOnUse" color-interpolation-filters="sRGB">
<feFlood flood-opacity="0" result="BackgroundImageFix"/>
<feBlend mode="normal" in="SourceGraphic" in2="BackgroundImageFix" result="shape"/>
<feGaussianBlur stdDeviation="20" result="effect1_foregroundBlur_1786_14819"/>
</filter>
<filter id="filter3_f_1786_14819" x="-7.12549" y="-5.59375" width="45.0806" height="42.6406" filterUnits="userSpaceOnUse" color-interpolation-filters="sRGB">
<feFlood flood-opacity="0" result="BackgroundImageFix"/>
<feBlend mode="normal" in="SourceGraphic" in2="BackgroundImageFix" result="shape"/>
<feGaussianBlur stdDeviation="5" result="effect1_foregroundBlur_1786_14819"/>
</filter>
<filter id="filter4_f_1786_14819" x="-20.6997" y="-2.73633" width="50.645" height="41.5176" filterUnits="userSpaceOnUse" color-interpolation-filters="sRGB">
<feFlood flood-opacity="0" result="BackgroundImageFix"/>
<feBlend mode="normal" in="SourceGraphic" in2="BackgroundImageFix" result="shape"/>
<feGaussianBlur stdDeviation="5" result="effect1_foregroundBlur_1786_14819"/>
</filter>
<clipPath id="clip0_1786_14819">
<rect y="0.5" width="22" height="22" rx="4" fill="white"/>
</clipPath>
</defs>
</svg>
