<svg width="24" height="24" viewBox="0 0 24 24" fill="current" xmlns="http://www.w3.org/2000/svg">
<g id="icSearch">
<g id="Vector">
<path fill-rule="evenodd" clip-rule="evenodd" d="M11.7669 3.5C7.35492 3.5 3.77832 7.0766 3.77832 11.4886C3.77832 15.9005 7.35492 19.4771 11.7669 19.4771C16.1788 19.4771 19.7554 15.9005 19.7554 11.4886C19.7554 7.0766 16.1788 3.5 11.7669 3.5ZM1.77832 11.4886C1.77832 5.97203 6.25035 1.5 11.7669 1.5C17.2834 1.5 21.7554 5.97203 21.7554 11.4886C21.7554 17.0051 17.2834 21.4771 11.7669 21.4771C6.25035 21.4771 1.77832 17.0051 1.77832 11.4886Z" fill="current"/>
<path fill-rule="evenodd" clip-rule="evenodd" d="M17.3106 17.5009C17.7006 17.1099 18.3337 17.1091 18.7248 17.4991L22.2488 21.0139C22.6398 21.404 22.6407 22.0371 22.2506 22.4282C21.8606 22.8192 21.2275 22.82 20.8364 22.43L17.3124 18.9151C16.9214 18.5251 16.9206 17.8919 17.3106 17.5009Z" fill="current"/>
</g>
</g>
</svg>
