<svg width="628" height="116" viewBox="0 0 628 116" fill="none" xmlns="http://www.w3.org/2000/svg">
<path d="M45.5879 46.3707C38.4407 44.6768 33.2412 43.8298 29.9895 43.8298C29.0559 43.8298 28.3315 44.0416 27.8164 44.465C27.3334 44.8885 27.092 45.3609 27.092 45.8821C27.092 46.957 28.412 48.0483 31.0519 49.1559C33.7241 50.2308 36.1709 51.2895 38.3924 52.3319C40.6138 53.3743 42.5294 54.6448 44.1392 56.1432C47.6162 59.4007 49.3547 64.2544 49.3547 70.7043C49.3547 77.1216 47.0528 82.0567 42.4489 85.5097C37.8451 88.9627 31.6154 90.6891 23.7598 90.6891C15.9043 90.6891 9.62626 89.9562 4.92581 88.4903C2.86534 87.8714 1.28779 87.1384 0.193169 86.2915V68.1634C0.643897 68.196 1.43267 68.4078 2.55949 68.7987C3.68631 69.1896 5.55361 69.8085 8.1614 70.6554C10.7692 71.4698 13.1355 71.877 15.2604 71.877C17.4174 71.877 18.4959 71.0789 18.4959 69.4827C18.4959 68.2449 17.5301 67.0396 15.5984 65.8669C14.7291 65.3457 13.7472 64.8082 12.6526 64.2544C8.1131 62.0067 4.86142 59.417 2.89754 56.4853C0.965846 53.5209 0 50.0517 0 46.0775C0 39.0087 2.83315 33.7315 8.49944 30.246C13.2643 27.3142 19.494 25.8484 27.1886 25.8484C32.5651 25.8484 37.9577 26.3858 43.3665 27.4608C44.5255 27.6889 45.266 27.8517 45.5879 27.9495V46.3707Z" fill="#FF6937"/>
<path d="M96.3969 45.54C96.3969 42.6734 95.0769 41.2401 92.437 41.2401C89.4106 41.5333 87.4468 43.1132 86.5453 45.9798C86.0946 47.3479 85.7726 48.9441 85.5795 50.7683C85.4185 52.56 85.1609 54.4819 84.8068 56.5341L95.3828 54.1399L96.3003 46.6639L96.3969 45.54ZM89.8775 67.7725C89.8775 67.7725 88.9921 67.7725 87.2214 67.7725C86.3843 67.7725 85.5795 67.74 84.8068 67.6748C84.8068 71.5513 86.8512 73.6686 90.9399 74.027C92.0667 74.1247 93.1613 74.1735 94.2238 74.1735C96.9603 74.1735 100.389 73.5383 104.51 72.2679C108.663 70.9975 112.382 68.929 115.666 66.0623L118.66 81.2586C111.48 87.5456 100.631 90.6891 86.1107 90.6891C77.7722 90.6891 70.6088 88.2297 64.6206 83.3109C58.1172 77.936 54.8656 70.4926 54.8656 60.9806C54.8656 53.8141 56.7007 47.3805 60.3709 41.6799C63.7835 36.4678 68.4035 32.51 74.2308 29.8062C80.058 27.1025 86.3521 25.7506 93.1131 25.7506C101.87 25.7506 108.486 27.6889 112.961 31.5653C117.468 35.4417 119.706 40.2303 119.674 45.9309C119.674 51.6316 116.986 56.697 111.609 61.1272C106.232 65.5574 98.9886 67.7725 89.8775 67.7725Z" fill="#FF6937"/>
<path d="M155.222 88.8812H127.841V6.64532H155.222V88.8812Z" fill="#FF6937"/>
<path d="M210.233 19.8382C208.655 19.3822 207.094 19.1542 205.549 19.1542C202.748 19.1542 200.607 19.9685 199.126 21.5973C197.677 23.1935 196.856 25.376 196.663 28.1449H210.329V43.6344H196.663V88.8812H167.784V43.6344H162.279V28.1449H167.784V17.8349C167.784 12.4274 169.909 8.14378 174.159 4.98399C178.408 1.82421 184.075 0.244313 191.157 0.244313C198.24 0.211738 204.599 1.87307 210.233 5.22831V19.8382Z" fill="#FF6937"/>
<path d="M274.135 25.9461C277.966 25.9461 281.91 26.5813 285.966 27.8517V6.64532H314.072V88.8812H296.156L289.25 78.7666C283.358 86.6498 275.616 90.5914 266.022 90.5914C258.327 90.5914 251.598 87.9528 245.835 82.6757C240.105 77.3659 237.239 70.574 237.239 62.2999C237.239 54.0258 238.913 47.2176 242.262 41.8753C248.894 31.2558 259.518 25.9461 274.135 25.9461ZM285.966 46.5661C284.872 45.8821 283.68 45.54 282.393 45.54C281.105 45.54 279.865 45.8006 278.674 46.3218C276.227 47.3968 274.038 49.1396 272.106 51.5501C271.076 52.7228 270.207 53.977 269.499 55.3126C267.953 58.1792 267.181 61.0295 267.181 63.8635C267.181 66.665 268.034 68.6195 269.74 69.727C270.352 70.1179 271.092 70.3297 271.961 70.3623C276.147 70.3623 280.815 68.2286 285.966 63.9612V46.5661Z" fill="#FF6937"/>
<path d="M338.514 0C343.246 0 346.756 1.00983 349.042 3.02949C351.327 5.01657 352.454 7.55743 352.422 10.6521C352.422 13.7467 350.957 16.597 348.027 19.203C345.13 21.809 341.25 23.112 336.389 23.112C329.564 23.112 325.314 21.0272 323.64 16.8576C323.157 15.6849 322.915 14.3819 322.915 12.9486C322.915 11.5153 323.253 10.0168 323.93 8.45324C324.606 6.88964 325.62 5.48891 326.972 4.25105C329.966 1.41702 333.813 0 338.514 0ZM351.601 88.8812H323.64V28.1449H351.601V88.8812Z" fill="#FF6937"/>
<path d="M393.766 44.6605C391.19 44.6605 389.902 46.7616 389.902 50.9638V88.8812H361.217V28.1449H377.057L383.962 37.6243C386.538 34.0084 390.095 31.1418 394.635 29.0244C399.207 26.907 403.472 25.8484 407.432 25.8484C414.708 25.8484 420.471 27.8029 424.721 31.7119C429.003 35.6209 431.144 40.8655 431.144 47.4457V88.8812H402.265V59.5636C402.265 49.6282 399.432 44.6605 393.766 44.6605Z" fill="#FF6937"/>
<path d="M455.199 0C459.932 0 463.441 1.00983 465.727 3.02949C468.013 5.01657 469.139 7.55743 469.107 10.6521C469.107 13.7467 467.642 16.597 464.713 19.203C461.815 21.809 457.936 23.112 453.074 23.112C446.249 23.112 441.999 21.0272 440.325 16.8576C439.842 15.6849 439.601 14.3819 439.601 12.9486C439.601 11.5153 439.939 10.0168 440.615 8.45324C441.291 6.88964 442.305 5.48891 443.657 4.25105C446.651 1.41702 450.499 0 455.199 0ZM468.286 88.8812H440.325V28.1449H468.286V88.8812Z" fill="#FF6937"/>
<path d="M510.451 44.6605C507.875 44.6605 506.588 46.7616 506.588 50.9638V88.8812H477.902V28.1449H493.742L500.648 37.6243C503.223 34.0084 506.781 31.1418 511.32 29.0244C515.892 26.907 520.158 25.8484 524.118 25.8484C531.394 25.8484 537.157 27.8029 541.406 31.7119C545.688 35.6209 547.829 40.8655 547.829 47.4457V88.8812H518.95V59.5636C518.95 49.6282 516.117 44.6605 510.451 44.6605Z" fill="#FF6937"/>
<path d="M578.838 113.899V96.6015C580.48 96.797 582.267 97.0739 584.199 97.4322C586.163 97.7905 588.062 97.9697 589.897 97.9697C591.732 97.9697 593.423 97.7579 594.968 97.3345C596.545 96.911 597.946 96.0803 599.169 94.8425C601.809 92.1713 603.145 87.6759 603.178 81.3564C597.544 87.5782 590.718 90.6891 582.702 90.6891C574.717 90.7217 568.053 88.1646 562.709 83.0177C557.397 77.8708 554.74 70.5251 554.74 60.9806C554.74 54.1399 556.221 48.0646 559.183 42.7548C562.145 37.4125 566.121 33.2592 571.112 30.2949C576.134 27.3305 581.462 25.8484 587.096 25.8484C592.763 25.8484 597.656 27.7214 601.777 31.4676C603.129 32.6728 604.288 34.0573 605.254 35.6209L612.208 28.1449H628V88.8812C628.032 101.423 622.446 109.664 611.242 113.606C606.735 115.202 601.568 116 595.741 116C589.945 116 584.311 115.3 578.838 113.899ZM602.019 46.5661C600.86 45.8821 599.636 45.54 598.348 45.54C597.093 45.54 595.869 45.8006 594.678 46.3218C592.231 47.3968 590.042 49.1396 588.11 51.5501C584.859 55.3614 583.233 59.4007 583.233 63.6681C583.233 66.5347 584.07 68.5543 585.744 69.727C587.161 70.6717 589.35 70.6554 592.312 69.6782C595.145 68.7335 598.381 66.8279 602.019 63.9612V46.5661Z" fill="#FF6937"/>
</svg>
