<svg width="20" height="20" viewBox="0 0 20 20" fill="none" xmlns="http://www.w3.org/2000/svg">
<g id="link">
<path id="Vector" d="M17.805 2.37542L17.805 2.37543L17.8068 2.37971C17.8236 2.41906 17.8326 2.46128 17.8334 2.50405V7.50033C17.8334 7.58873 17.7983 7.67352 17.7358 7.73603C17.6733 7.79854 17.5885 7.83366 17.5001 7.83366C17.4117 7.83366 17.3269 7.79854 17.2644 7.73603C17.2019 7.67352 17.1667 7.58873 17.1667 7.50033V4.50866V3.30072L16.313 4.15528L7.73802 12.7386L7.73675 12.7399C7.70576 12.7711 7.6689 12.7959 7.62827 12.8129C7.58765 12.8298 7.54409 12.8385 7.50008 12.8385C7.45608 12.8385 7.41251 12.8298 7.37189 12.8129L7.1796 13.2744L7.37189 12.8129C7.33127 12.7959 7.2944 12.7711 7.26342 12.7399L7.26052 12.737C7.22927 12.706 7.20448 12.6691 7.18755 12.6285C7.17063 12.5879 7.16192 12.5443 7.16192 12.5003C7.16192 12.4563 7.17063 12.4128 7.18755 12.3721L6.72601 12.1798L7.18755 12.3721C7.20447 12.3315 7.22927 12.2946 7.26052 12.2637L7.2618 12.2624L15.8451 3.68738L16.6997 2.83366H15.4917H12.5001C12.4117 2.83366 12.3269 2.79854 12.2644 2.73603L11.9108 3.08958L12.2644 2.73603C12.2019 2.67351 12.1667 2.58873 12.1667 2.50033C12.1667 2.41192 12.2019 2.32714 12.2644 2.26462C12.3269 2.20211 12.4117 2.16699 12.5001 2.16699H17.4964C17.5391 2.16781 17.5813 2.17685 17.6207 2.19362L17.6207 2.19364L17.625 2.19542C17.7064 2.22925 17.7712 2.29397 17.805 2.37542ZM14.7644 9.61462C14.8269 9.55211 14.9117 9.51699 15.0001 9.51699C15.0885 9.51699 15.1733 9.55211 15.2358 9.61462C15.2983 9.67713 15.3334 9.76192 15.3334 9.85033V15.8337C15.3334 16.3641 15.1227 16.8728 14.7476 17.2479C14.3726 17.6229 13.8638 17.8337 13.3334 17.8337H4.16675C3.63631 17.8337 3.12761 17.6229 2.75253 17.2479C2.37746 16.8728 2.16675 16.3641 2.16675 15.8337V6.66699C2.16675 6.13656 2.37746 5.62785 2.75253 5.25278C3.12761 4.87771 3.63632 4.66699 4.16675 4.66699H10.1501C10.2385 4.66699 10.3233 4.70211 10.3858 4.76462C10.4483 4.82714 10.4834 4.91192 10.4834 5.00033C10.4834 5.08873 10.4483 5.17352 10.3858 5.23603C10.3233 5.29854 10.2385 5.33366 10.1501 5.33366H4.16675C3.81313 5.33366 3.47399 5.47414 3.22394 5.72418C2.97389 5.97423 2.83341 6.31337 2.83341 6.66699V15.8337C2.83341 16.1873 2.97389 16.5264 3.22394 16.7765C3.47399 17.0265 3.81313 17.167 4.16675 17.167H13.3334C13.687 17.167 14.0262 17.0265 14.2762 16.7765C14.5263 16.5264 14.6667 16.1873 14.6667 15.8337V9.85033C14.6667 9.76192 14.7019 9.67713 14.7644 9.61462Z" fill="#BFC1C8" stroke="#BFC1C8"/>
</g>
</svg>
